<?xml version="1.0" standalone="no"?>
<!DOCTYPE svg PUBLIC "-//W3C//DTD SVG 20010904//EN"
 "http://www.w3.org/TR/2001/REC-SVG-20010904/DTD/svg10.dtd">
<svg version="1.0" xmlns="http://www.w3.org/2000/svg"
 width="1167.000000pt" height="597.000000pt" viewBox="0 0 1167.000000 597.000000"
 preserveAspectRatio="xMidYMid meet">

<g transform="translate(0.000000,597.000000) scale(0.100000,-0.100000)"
fill="#000000" stroke="none">
<path d="M6938 4403 c8 -6 -7 -9 -43 -9 -33 0 -60 -5 -68 -14 -8 -9 -8 -11 0
-6 6 3 14 2 18 -4 4 -6 -5 -10 -19 -10 -14 0 -26 -5 -26 -12 0 -6 -3 -8 -7 -5
-3 4 -15 -1 -25 -10 -16 -14 -23 -15 -38 -5 -15 9 -25 9 -45 0 -19 -8 -22 -14
-13 -20 7 -4 -1 -5 -19 -2 -23 5 -33 3 -33 -6 0 -7 -7 -10 -16 -6 -8 3 -12 2
-9 -4 3 -6 -1 -11 -9 -11 -45 -4 -107 -30 -100 -41 4 -7 2 -8 -5 -4 -14 9
-206 -98 -286 -159 -10 -8 -22 -15 -27 -15 -4 0 -27 -14 -50 -30 -24 -17 -68
-47 -98 -67 -30 -21 -57 -40 -60 -43 -3 -3 -28 -23 -57 -44 -44 -34 -71 -65
-61 -70 5 -3 151 -113 208 -157 51 -40 161 -131 221 -183 44 -38 48 -39 92 -3
68 56 255 178 342 223 28 15 52 29 55 33 3 3 37 22 75 41 39 19 71 38 73 42 2
4 10 4 18 1 8 -3 14 -1 14 5 0 6 19 17 43 25 73 27 163 67 149 67 -7 0 -10 5
-6 12 4 7 3 8 -5 4 -6 -4 -25 -4 -42 -1 -25 6 -30 11 -29 33 3 43 1 54 -10 47
-6 -3 -7 1 -4 10 4 10 -1 22 -15 31 -12 9 -18 21 -15 27 4 7 4 9 -1 5 -12 -11
-35 11 -35 34 0 10 -8 30 -17 44 -15 24 -15 31 -1 92 18 77 12 163 -12 169
-11 4 -12 2 -2 -4z"/>
<path d="M7679 3685 c-3 -2 -43 -7 -90 -10 -46 -3 -104 -10 -129 -16 -59 -13
-119 -29 -150 -39 -14 -5 -59 -18 -100 -30 -80 -24 -144 -46 -172 -61 -10 -5
-23 -9 -30 -9 -19 0 -293 -136 -363 -180 -33 -20 -100 -61 -150 -90 -49 -29
-92 -56 -95 -60 -3 -4 -22 -18 -42 -31 -53 -35 -229 -162 -328 -238 -167 -127
-286 -216 -325 -244 -22 -15 -53 -39 -70 -53 l-30 -25 40 -36 c98 -89 364
-353 346 -344 -11 6 -50 41 -88 78 -169 166 -273 258 -273 243 0 -6 -21 -16
-46 -22 -26 -7 -49 -18 -51 -25 -3 -7 -14 -13 -24 -13 -10 0 -28 -9 -39 -20
-11 -11 -26 -20 -34 -20 -8 0 -16 -7 -20 -15 -3 -8 -10 -15 -16 -15 -5 0 -19
-9 -30 -20 -11 -11 -27 -20 -36 -20 -14 0 -49 -25 -140 -99 -15 -12 -110 -6
-106 8 1 6 -6 11 -16 11 -9 0 -53 34 -97 75 -44 42 -97 85 -118 96 -21 11 -48
29 -61 40 -53 46 -163 99 -267 128 -132 37 -217 43 -404 30 -97 -7 -183 -9
-200 -4 -33 9 -28 11 58 20 45 5 64 13 87 35 17 16 30 34 30 39 0 6 9 15 19
20 12 7 20 24 23 51 3 36 1 41 -20 47 -13 3 -40 21 -60 39 -21 19 -44 36 -52
39 -33 12 -130 157 -179 269 -2 5 2 5 9 1 10 -6 12 -2 7 16 -4 13 -7 35 -7 48
0 28 -15 18 -22 -14 -3 -14 -7 -8 -13 19 -6 32 -5 42 10 52 9 7 15 18 13 25
-3 8 -12 4 -26 -11 -18 -19 -22 -21 -22 -7 0 24 -11 21 -35 -9 -11 -14 -40
-46 -64 -72 -65 -70 -167 -204 -175 -229 -4 -13 -11 -23 -15 -23 -17 0 -34
-63 -32 -118 3 -93 -11 -50 -18 55 -4 67 -10 98 -18 99 -7 1 -17 2 -23 3 -5 0
-10 10 -10 22 0 15 5 19 16 15 9 -3 12 -2 9 5 -5 6 -33 8 -78 4 -132 -10 -167
-16 -160 -27 3 -7 1 -8 -6 -4 -14 9 -114 -25 -202 -70 -127 -63 -210 -141
-266 -249 -34 -64 -37 -77 -37 -155 0 -75 3 -93 28 -140 15 -29 34 -59 41 -67
8 -7 22 -23 32 -36 25 -33 131 -111 193 -144 28 -16 66 -36 83 -45 18 -9 40
-17 49 -18 16 0 16 3 -2 35 -27 47 -26 135 0 194 31 67 124 150 224 199 48 23
90 42 95 42 5 0 14 7 21 15 7 8 17 12 22 9 5 -4 21 0 35 7 29 16 26 19 96 -93
40 -63 107 -138 192 -218 21 -19 34 -28 30 -20 -5 8 4 3 19 -11 28 -28 144
-91 211 -116 54 -20 219 -59 280 -68 40 -5 144 -11 264 -15 22 0 6 -11 -31
-20 -18 -5 -76 -20 -128 -35 -92 -26 -184 -43 -360 -66 -113 -14 -587 -3 -633
16 -9 4 -29 4 -43 1 -16 -4 -23 -3 -20 3 4 6 -5 6 -26 0 -42 -11 -57 -11 -38
1 12 7 11 10 -5 15 -11 4 -30 11 -43 16 -13 5 -27 7 -31 4 -5 -2 -21 -1 -37 4
-21 6 -33 4 -43 -6 -11 -12 -15 -12 -22 -2 -6 10 -13 10 -34 1 -34 -16 -45
-15 -45 3 0 22 -17 18 -23 -4 -3 -11 2 -29 10 -40 12 -19 12 -21 -1 -21 -12 0
-16 -10 -16 -40 0 -29 4 -40 15 -40 12 0 15 -17 17 -82 2 -46 2 -107 1 -136
-1 -29 2 -50 6 -47 5 2 16 -4 26 -15 10 -12 13 -20 7 -20 -22 0 -12 -20 13
-26 14 -4 24 -9 21 -12 -3 -3 2 -11 12 -18 12 -9 19 -9 24 -1 4 7 11 1 19 -16
12 -26 28 -33 99 -42 19 -2 51 -11 70 -18 194 -78 770 -98 1076 -37 32 7 94
18 137 25 43 8 102 21 130 29 29 9 101 30 162 47 60 17 125 39 145 49 19 9 64
28 100 40 83 29 278 120 412 192 15 8 25 18 21 21 -12 13 6 7 19 -5 129 -123
270 -233 384 -301 146 -87 331 -156 435 -161 21 -1 41 -5 45 -9 11 -11 169 -8
179 2 6 6 21 11 35 13 14 2 30 6 35 9 6 4 28 5 50 4 l40 -3 -30 14 -30 14 33
-6 c23 -4 32 -2 30 6 -2 7 9 13 26 14 16 1 31 7 34 14 2 7 8 12 13 12 13 0 89
76 89 89 0 6 9 11 19 11 33 0 51 11 51 31 0 10 7 19 15 19 9 0 20 11 27 25 6
13 15 22 19 19 5 -3 6 1 3 9 -3 8 2 20 11 27 8 7 15 19 15 26 0 8 4 14 9 14
16 0 41 48 34 66 -5 14 -16 16 -72 11 -36 -4 -83 -9 -103 -13 -21 -4 -38 -3
-38 2 0 5 41 17 91 27 51 10 110 28 133 42 24 14 50 25 59 25 10 0 17 4 17 8
0 5 17 18 38 30 20 11 55 40 77 63 l40 41 -63 -45 c-69 -51 -133 -83 -232
-118 -57 -20 -84 -23 -215 -23 -132 0 -162 3 -245 26 -156 43 -326 130 -455
231 -67 53 -125 105 -125 114 0 3 11 -4 24 -16 l25 -23 122 88 c276 201 315
228 344 238 17 6 32 16 33 21 1 6 7 11 12 11 6 1 13 3 18 4 4 1 11 2 16 1 5
-1 13 4 17 11 4 7 26 13 48 13 22 0 37 3 35 7 -3 5 0 8 5 8 6 0 11 5 11 11 0
5 -6 7 -12 4 -7 -4 1 5 17 19 17 14 34 26 39 26 18 0 112 -109 131 -151 11
-24 22 -46 25 -49 4 -3 21 -41 40 -85 29 -70 34 -94 38 -191 3 -77 8 -111 16
-109 28 6 51 21 88 57 21 21 43 38 48 38 4 0 78 69 164 154 143 140 156 156
156 189 0 49 -35 157 -65 201 -14 20 -25 39 -25 43 0 13 -87 108 -122 133
l-38 28 25 16 c13 9 29 16 35 16 5 0 10 5 10 10 0 6 6 10 13 10 17 0 181 53
187 61 5 6 152 47 203 56 28 6 36 18 15 26 -7 2 -1 6 14 9 17 3 25 1 21 -5 -4
-6 -1 -7 8 -1 8 4 32 9 54 10 77 2 75 1 75 44 0 33 -3 40 -20 40 -18 0 -20 7
-20 80 0 47 -4 80 -10 80 -5 0 -11 -12 -11 -27 l-1 -28 -8 30 c-4 17 -8 47 -9
68 -1 33 -4 37 -26 37 -22 0 -25 4 -25 40 0 28 -4 40 -15 40 -19 0 -30 62 -16
88 7 14 17 18 31 15 31 -8 26 33 -7 63 -16 14 -22 22 -14 18 9 -5 12 -3 7 4
-7 12 -58 17 -67 7z m34 -12 c-7 -2 -19 -2 -25 0 -7 3 -2 5 12 5 14 0 19 -2
13 -5z m-4288 -671 c-8 -8 -25 10 -19 20 4 6 9 5 15 -3 4 -7 6 -15 4 -17z
m3232 -448 c-3 -3 -12 -4 -19 -1 -8 3 -5 6 6 6 11 1 17 -2 13 -5z m-1527 -304
c0 -5 -2 -10 -4 -10 -3 0 -8 5 -11 10 -3 6 -1 10 4 10 6 0 11 -4 11 -10z
m-2010 -260 c0 -23 -15 -25 -53 -7 -38 17 -33 27 13 27 33 0 40 -3 40 -20z
m-61 -97 l-1 -88 -10 65 c-8 59 -5 110 7 110 3 0 4 -39 4 -87z m38 5 c-3 -7
-5 -2 -5 12 0 14 2 19 5 13 2 -7 2 -19 0 -25z m3783 -118 c0 -5 -2 -10 -4 -10
-3 0 -8 5 -11 10 -3 6 -1 10 4 10 6 0 11 -4 11 -10z"/>
<path d="M7770 3555 c6 -8 9 -18 6 -24 -3 -5 -3 -17 0 -26 5 -13 15 -16 38
-12 17 3 25 3 19 0 -19 -7 -17 -83 2 -83 12 0 15 14 15 64 0 60 -1 64 -21 59
-15 -4 -22 0 -26 16 -3 13 -13 21 -25 21 -17 0 -18 -3 -8 -15z"/>
<path d="M3811 3314 c0 -11 3 -14 6 -6 3 7 2 16 -1 19 -3 4 -6 -2 -5 -13z"/>
<path d="M8080 3033 c0 -14 -114 -100 -180 -136 -95 -53 -288 -113 -403 -128
-53 -6 -100 -16 -103 -21 -3 -5 5 -23 18 -41 35 -46 74 -140 99 -236 16 -66
20 -104 17 -169 l-5 -85 111 7 c127 7 274 29 304 45 11 6 29 11 40 11 23 0
167 45 196 62 11 5 51 27 90 47 84 42 224 175 251 236 16 37 27 155 14 155 -4
0 -10 16 -13 35 -8 43 -73 109 -145 149 -77 41 -291 92 -291 69z"/>
<path d="M6778 2573 c7 -3 16 -2 19 1 4 3 -2 6 -13 5 -11 0 -14 -3 -6 -6z"/>
<path d="M6810 2556 c0 -2 8 -10 18 -17 15 -13 16 -12 3 4 -13 16 -21 21 -21
13z"/>
<path d="M6850 2500 c0 -8 8 -24 16 -35 16 -19 16 -19 9 5 -9 31 -25 50 -25
30z"/>
<path d="M3030 2080 c0 -5 7 -10 16 -10 8 0 12 5 9 10 -3 6 -10 10 -16 10 -5
0 -9 -4 -9 -10z"/>
<path d="M3115 2060 c-3 -5 1 -10 10 -10 9 0 13 5 10 10 -3 6 -8 10 -10 10 -2
0 -7 -4 -10 -10z"/>
<path d="M7116 1805 c4 -8 10 -12 15 -9 14 8 10 24 -6 24 -9 0 -12 -6 -9 -15z"/>
<path d="M3026 1675 c-3 -8 -1 -15 4 -15 6 0 10 7 10 15 0 8 -2 15 -4 15 -2 0
-6 -7 -10 -15z"/>
<path d="M3075 1550 c3 -5 8 -10 11 -10 2 0 4 5 4 10 0 6 -5 10 -11 10 -5 0
-7 -4 -4 -10z"/>
<path d="M7430 1137 c-30 -15 -45 -54 -36 -90 16 -67 115 -75 142 -12 17 42 4
87 -32 104 -31 14 -43 14 -74 -2z"/>
<path d="M6410 1081 c-22 -33 -45 -63 -51 -67 -22 -13 14 -22 70 -18 54 3 58
5 113 66 32 35 58 66 58 71 0 4 -34 7 -75 7 l-74 0 -41 -59z"/>
<path d="M3720 756 l0 -364 65 -4 65 -3 0 29 c0 27 1 28 18 13 77 -70 241 -58
322 23 65 65 84 112 84 205 -1 92 -16 136 -70 194 -87 97 -242 110 -331 28
l-23 -20 0 131 0 132 -65 0 -65 0 0 -364z m338 40 c55 -29 76 -62 80 -129 3
-52 0 -67 -20 -97 -84 -125 -268 -66 -268 85 0 49 34 112 73 135 38 23 97 26
135 6z"/>
<path d="M7170 995 c0 -77 -4 -125 -10 -125 -5 0 -10 4 -10 9 0 19 -87 51
-139 51 -73 0 -124 -17 -170 -57 -93 -79 -123 -233 -67 -347 45 -92 129 -145
232 -146 60 0 110 15 142 43 l22 20 0 -29 0 -29 67 5 68 5 -1 360 -2 360 -66
3 -66 3 0 -126z m-54 -216 c14 -13 32 -36 40 -51 18 -35 18 -111 -1 -148 -46
-89 -168 -105 -240 -30 -23 24 -29 41 -32 87 -5 70 16 117 67 151 47 32 127
27 166 -9z"/>
<path d="M2755 1076 c-63 -20 -99 -42 -148 -89 -79 -77 -114 -178 -104 -297
10 -120 71 -212 179 -271 61 -33 67 -34 173 -34 99 0 115 3 165 27 30 15 71
43 89 62 l34 35 -44 40 c-24 22 -49 40 -55 41 -5 0 -23 -13 -38 -29 -55 -57
-200 -68 -271 -20 -75 52 -108 151 -85 251 22 91 118 168 210 168 46 0 100
-21 135 -51 40 -36 57 -33 104 15 27 28 31 37 22 54 -14 27 -101 81 -157 98
-57 17 -155 17 -209 0z"/>
<path d="M5733 1076 c-100 -33 -186 -107 -226 -195 -31 -67 -31 -236 0 -303
30 -66 96 -133 161 -165 73 -36 203 -44 285 -18 59 18 150 81 155 107 2 9 -16
32 -42 53 l-46 37 -32 -27 c-48 -40 -89 -55 -156 -55 -75 0 -137 30 -177 88
-42 62 -48 158 -12 235 63 137 235 170 344 65 l32 -30 47 44 c41 39 45 47 34
64 -16 26 -76 67 -130 88 -60 24 -183 30 -237 12z"/>
<path d="M6360 931 c-90 -19 -171 -85 -207 -169 -21 -48 -19 -164 2 -216 25
-59 102 -130 164 -151 111 -37 239 -7 313 72 95 102 98 269 5 378 -54 65 -185
106 -277 86z m138 -141 c53 -33 74 -75 69 -144 -3 -54 -7 -62 -44 -97 -53 -49
-99 -58 -161 -33 -64 27 -87 62 -87 132 0 69 19 109 64 139 44 30 113 31 159
3z"/>
<path d="M4480 909 c-102 -46 -151 -123 -158 -246 -4 -71 -1 -88 18 -125 28
-56 75 -105 125 -130 49 -26 162 -35 222 -19 42 11 124 66 129 86 1 6 -15 25
-36 43 l-38 32 -43 -25 c-79 -45 -192 -28 -223 34 -9 16 -16 35 -16 41 0 6 66
10 195 10 l195 0 0 58 c0 32 -7 79 -16 105 -18 52 -82 118 -140 142 -53 22
-159 19 -214 -6z m179 -108 c39 -20 69 -70 56 -91 -5 -8 -44 -11 -129 -8 -137
4 -147 11 -100 68 46 54 106 65 173 31z"/>
<path d="M5125 915 c-16 -9 -40 -27 -51 -41 l-21 -26 -7 36 -7 36 -58 0 c-40
0 -61 -4 -64 -13 -3 -8 -3 -126 -1 -262 3 -178 7 -251 16 -256 6 -4 23 -6 37
-4 14 1 38 3 54 4 l27 1 0 150 c0 204 16 240 118 256 23 4 42 12 42 18 1 6 3
35 6 64 l6 52 -34 0 c-18 0 -46 -7 -63 -15z"/>
<path d="M7418 923 c-17 -4 -18 -26 -18 -268 l0 -263 61 -4 c36 -2 63 1 65 7
3 6 3 127 2 270 l-3 260 -45 2 c-25 0 -53 -1 -62 -4z"/>
<path d="M7760 917 c-98 -43 -160 -140 -160 -247 0 -119 45 -202 135 -246 50
-24 64 -26 135 -22 66 4 84 9 114 32 31 23 36 25 36 9 0 -40 -22 -91 -50 -118
-27 -25 -40 -30 -100 -33 -58 -4 -77 0 -125 22 -32 14 -59 26 -61 26 -2 0 -15
-23 -30 -52 -25 -50 -25 -52 -8 -65 36 -27 145 -53 218 -53 123 0 212 46 259
133 21 40 22 55 25 330 l3 287 -65 0 -66 0 0 -32 0 -32 -27 26 c-16 15 -41 32
-56 37 -36 14 -145 13 -177 -2z m208 -138 c74 -58 68 -190 -10 -239 -43 -28
-145 -24 -179 5 -72 65 -61 188 21 243 46 31 123 27 168 -9z"/>
<path d="M8375 906 c-106 -50 -159 -134 -158 -251 1 -82 18 -129 70 -186 61
-68 103 -84 214 -84 89 0 99 2 144 30 95 59 154 175 140 273 -21 149 -129 241
-285 242 -58 0 -86 -5 -125 -24z m203 -116 c53 -32 74 -75 69 -143 -3 -49 -8
-62 -37 -92 -102 -105 -261 -42 -260 102 2 119 129 193 228 133z"/>
<path d="M3151 868 c11 -29 59 -147 105 -262 78 -191 84 -212 73 -238 -16 -40
-46 -58 -96 -58 l-42 0 -6 -55 c-4 -31 -5 -58 -3 -61 3 -2 34 -5 69 -6 83 -2
132 21 170 80 26 40 240 567 255 626 l6 26 -65 0 -66 0 -29 -77 c-17 -43 -47
-122 -67 -175 -21 -54 -41 -98 -44 -98 -7 0 -74 169 -114 288 l-21 62 -73 0
-73 0 21 -52z"/>
</g>
</svg>
